<svg viewBox="0 0 32 32" xmlns="http://www.w3.org/2000/svg"><path d="m22.7 28h-13.4a6.25 6.25 0 0 1 -5.47-3.15 6.15 6.15 0 0 1 0-6.22l6.73-11.51a6.3 6.3 0 0 1 10.88 0l6.71 11.51a6.15 6.15 0 0 1 0 6.22 6.25 6.25 0 0 1 -5.45 3.15zm-6.7-22a4.24 4.24 0 0 0 -3.71 2.12l-6.71 11.52a4.15 4.15 0 0 0 0 4.21 4.23 4.23 0 0 0 3.72 2.15h13.4a4.23 4.23 0 0 0 3.73-2.15 4.15 4.15 0 0 0 0-4.21l-6.72-11.52a4.24 4.24 0 0 0 -3.71-2.12z"/><path d="m16 12a.54.54 0 0 0 -.44.22.52.52 0 0 0 -.1.48l.54 2.18.54-2.18a.52.52 0 0 0 -.1-.48.54.54 0 0 0 -.44-.22z" fill="none"/><path d="m18 11a2.56 2.56 0 0 0 -4 0 2.5 2.5 0 0 0 -.46 2.19l1.46 6.05a1 1 0 0 0 1.94 0l1.51-6.06a2.5 2.5 0 0 0 -.45-2.18zm-1.46 1.7-.54 2.18-.54-2.18a.52.52 0 0 1 .1-.48.55.55 0 0 1 .88 0 .52.52 0 0 1 .1.48z"/><circle cx="16" cy="22.5" r="1.5"/><path d="m0 0h32v32h-32z" fill="none"/></svg>